<svg width="219" height="162" viewBox="0 0 219 162" fill="none" xmlns="http://www.w3.org/2000/svg">
<path d="M73.6086 117.077C84.7003 135.822 16.5792 175.869 5.48752 157.125C-5.60413 138.38 0.649508 114.209 19.4571 103.155C38.2647 92.1002 62.517 98.3329 73.6086 117.077Z" fill="#F23B02"/>
<path d="M216.774 17.7899C212.052 9.96559 201.58 7.91636 194.255 13.3965L72.3917 103.966C74.0591 105.581 75.5863 107.35 77.0044 109.213L210.291 39.6017C218.457 35.643 221.464 25.5521 216.789 17.8054L216.774 17.7899Z" fill="#F23B02"/>
<path d="M141.829 21.9239C147.447 16.8616 147.384 8.05677 141.673 3.10311C136.148 -1.69527 127.689 -0.825661 123.273 4.99761L60.833 95.8717C62.9086 96.9277 64.9062 98.1389 66.8101 99.5054L141.829 21.9239Z" fill="#F23B02"/>
<path d="M81.7349 121.955L178.048 104.199C183.054 103.466 186.89 99.378 187.327 94.3384C187.982 86.5839 180.527 80.655 173.12 83.0577L80.3002 115.246C81.1423 117.056 81.7505 119.302 81.7349 121.955Z" fill="#F23B02"/>
<path d="M76.6658 135.485L192.218 151.499C197.681 152.406 203.16 149.947 206.047 145.29C211.557 136.392 205.048 124.989 194.465 124.989L80.3807 128.662C79.8812 129.984 79.2412 131.351 78.3984 132.811C77.8833 133.703 77.2901 134.609 76.6502 135.501L76.6658 135.485Z" fill="#F23B02"/>
<path d="M82.5242 39.9985C84.8376 35.9881 81.9653 30.9437 77.3541 30.9437C74.9476 30.9437 72.774 32.4007 71.8424 34.6408L51.0998 92.6035C52.6524 93.0108 54.1584 93.4965 55.6489 94.0447L82.5087 39.9985H82.5242Z" fill="#F23B02"/>
</svg>
