<?xml version="1.0" encoding="UTF-8" standalone="no"?>
<svg
   width="341"
   height="155"
   viewBox="0 0 341 155"
   fill="none"
   version="1.1"
   id="svg20"
   sodipodi:docname="logo.svg"
   inkscape:version="1.3.2 (091e20ef0f, 2023-11-25)"
   xmlns:inkscape="http://www.inkscape.org/namespaces/inkscape"
   xmlns:sodipodi="http://sodipodi.sourceforge.net/DTD/sodipodi-0.dtd"
   xmlns="http://www.w3.org/2000/svg"
   xmlns:svg="http://www.w3.org/2000/svg">
  <defs
     id="defs20" />
  <sodipodi:namedview
     id="namedview20"
     pagecolor="#ffffff"
     bordercolor="#000000"
     borderopacity="0.25"
     inkscape:showpageshadow="2"
     inkscape:pageopacity="0.0"
     inkscape:pagecheckerboard="0"
     inkscape:deskcolor="#d1d1d1"
     inkscape:zoom="2.744868"
     inkscape:cx="170.5"
     inkscape:cy="77.599359"
     inkscape:window-width="1499"
     inkscape:window-height="1206"
     inkscape:window-x="970"
     inkscape:window-y="114"
     inkscape:window-maximized="0"
     inkscape:current-layer="svg20" />
  <path
     d="M169.736 87.3078V59.2309H181.86C183.216 59.2309 184.463 59.5047 185.601 60.0426C186.739 60.5804 187.719 61.3041 188.541 62.2136C189.372 63.1231 190.005 64.1402 190.461 65.2746C190.916 66.409 191.144 67.5728 191.144 68.7561C191.144 70.3599 190.768 71.8953 190.005 73.3427C189.243 74.79 188.194 75.9734 186.848 76.8829C185.502 77.7923 183.909 78.2422 182.068 78.2422H176.307V87.298H169.745L169.736 87.3078ZM176.298 72.5994H181.662C182.167 72.5994 182.632 72.4527 183.067 72.1691C183.493 71.8757 183.839 71.4454 184.107 70.8685C184.374 70.2915 184.503 69.5776 184.503 68.7365C184.503 67.8955 184.344 67.1523 184.047 66.585C183.74 66.0178 183.354 65.6071 182.889 65.343C182.424 65.079 181.939 64.9519 181.424 64.9519H176.298V72.619V72.5994Z"
     fill="#02112E"
     id="path1"
     style="fill:#f23b02;fill-opacity:1" />
  <path
     d="M207.542 87.6923C205.401 87.6923 203.478 87.286 201.754 86.4735C200.029 85.6609 198.552 84.561 197.303 83.1836C196.064 81.8062 195.103 80.2603 194.438 78.5361C193.774 76.8118 193.437 75.0282 193.437 73.185C193.437 71.3419 193.794 69.4888 194.498 67.7745C195.202 66.0701 196.193 64.5341 197.462 63.1865C198.73 61.8388 200.237 60.7785 201.972 60.0056C203.706 59.2326 205.609 58.8462 207.661 58.8462C209.713 58.8462 211.686 59.2524 213.41 60.065C215.135 60.8776 216.612 61.9775 217.861 63.3747C219.1 64.7621 220.061 66.3178 220.725 68.0421C221.39 69.7663 221.727 71.5202 221.727 73.3138C221.727 75.2065 221.38 77.01 220.686 78.7243C219.992 80.4387 219.001 81.9647 217.722 83.3124C216.443 84.6601 214.937 85.7303 213.212 86.5131C211.487 87.3059 209.594 87.6923 207.542 87.6923ZM200.128 73.2643C200.128 74.3642 200.287 75.4245 200.614 76.4452C200.931 77.4758 201.407 78.3874 202.041 79.1901C202.666 79.9927 203.449 80.6369 204.38 81.1125C205.312 81.5881 206.383 81.8359 207.582 81.8359C208.781 81.8359 209.931 81.5881 210.873 81.0927C211.805 80.5972 212.578 79.9333 213.202 79.1108C213.817 78.2784 214.273 77.3569 214.58 76.3263C214.887 75.2957 215.046 74.2453 215.046 73.185C215.046 72.1247 214.887 71.0347 214.56 70.0239C214.243 69.0132 213.757 68.0916 213.113 67.279C212.469 66.4665 211.686 65.8323 210.744 65.3764C209.812 64.9206 208.752 64.6927 207.582 64.6927C206.323 64.6927 205.233 64.9305 204.321 65.4161C203.399 65.9016 202.626 66.5457 201.992 67.3583C201.367 68.1709 200.891 69.0924 200.594 70.123C200.287 71.1536 200.128 72.204 200.128 73.2643Z"
     fill="#02112E"
     id="path2"
     style="fill:#f23b02;fill-opacity:1" />
  <path
     d="M233.198 59.27H239.208L242.149 68.2476L245.09 59.27H251.14L246.33 72.3158L249.192 79.7874L256.274 59.2309H263.396L252.379 87.3078H246.733L242.159 76.3156L237.625 87.3078H231.939L220.962 59.2309H228.044L235.165 79.7874L237.949 72.3158L233.218 59.27H233.198Z"
     fill="#02112E"
     id="path3"
     style="fill:#f23b02;fill-opacity:1" />
  <path
     d="M287.098 81.6161V87.3078H267.219V59.2309H286.733V64.9225H273.75V70.3795H284.901V75.6409H273.75V81.6063H287.088L287.098 81.6161Z"
     fill="#02112E"
     id="path4"
     style="fill:#f23b02;fill-opacity:1" />
  <path
     d="M291.695 87.3078V59.2309H304.3C305.615 59.2309 306.823 59.5047 307.943 60.0426C309.053 60.5804 310.027 61.3041 310.836 62.2136C311.654 63.1231 312.287 64.1402 312.745 65.2746C313.203 66.409 313.437 67.5532 313.437 68.717C313.437 69.8807 313.251 70.976 312.881 72.0224C312.511 73.0688 311.985 73.9979 311.303 74.8292C310.621 75.6604 309.803 76.3352 308.858 76.8633L315.005 87.298H307.875L302.517 78.2422H298.143V87.298H291.685L291.695 87.3078ZM298.153 72.5994H304.056C304.582 72.5994 305.05 72.4332 305.459 72.1007C305.868 71.7682 306.199 71.3183 306.462 70.7315C306.725 70.1546 306.852 69.4798 306.852 68.717C306.852 67.9542 306.696 67.2892 306.394 66.722C306.092 66.1547 305.722 65.7147 305.274 65.4017C304.826 65.0888 304.358 64.9225 303.852 64.9225H298.143V72.5897L298.153 72.5994Z"
     fill="#02112E"
     id="path5"
     style="fill:#f23b02;fill-opacity:1" />
  <path
     d="M171.647 109.231V94.2309H173.558V109.231H171.647Z"
     fill="#02112E"
     id="path6"
     style="fill:#f23b02;fill-opacity:1" />
  <path
     d="M180.091 97.7319V109.221H178.146V94.2309H179.793L189.189 105.952V94.2599H191.144V109.231H189.368L180.101 97.7415L180.091 97.7319Z"
     fill="#02112E"
     id="path7"
     style="fill:#f23b02;fill-opacity:1" />
  <path
     d="M205.704 97.7319V109.221H203.759V94.2309H205.406L214.802 105.952V94.2599H216.757V109.231H214.981L205.714 97.7415L205.704 97.7319Z"
     fill="#02112E"
     id="path8"
     style="fill:#f23b02;fill-opacity:1" />
  <path
     d="M227.466 109.616C226.246 109.616 225.222 109.409 224.396 108.985C223.569 108.561 222.9 107.989 222.398 107.26C221.897 106.531 221.532 105.713 221.306 104.796C221.08 103.88 220.962 102.933 220.962 101.958V94.2309H222.9V101.958C222.9 102.707 222.979 103.436 223.126 104.146C223.274 104.855 223.52 105.486 223.864 106.048C224.209 106.61 224.671 107.053 225.262 107.378C225.852 107.713 226.58 107.871 227.456 107.871C228.331 107.871 229.079 107.704 229.67 107.368C230.26 107.033 230.722 106.58 231.067 106.008C231.411 105.447 231.657 104.806 231.805 104.106C231.952 103.406 232.031 102.687 232.031 101.958V94.2309H233.96V101.958C233.96 102.993 233.841 103.968 233.605 104.895C233.369 105.821 232.995 106.639 232.474 107.339C231.952 108.039 231.293 108.6 230.467 109.004C229.64 109.409 228.646 109.616 227.475 109.616H227.466Z"
     fill="#02112E"
     id="path9"
     style="fill:#f23b02;fill-opacity:1" />
  <path
     d="M251.554 109.231V97.7825L246.594 106.589H245.429L240.45 97.7825V109.231H238.547V94.2309H240.556L246.002 103.966L251.466 94.2309H253.456V109.231H251.554Z"
     fill="#02112E"
     id="path10"
     style="fill:#f23b02;fill-opacity:1" />
  <path
     d="M269.885 105.36C269.885 106.134 269.693 106.812 269.298 107.392C268.903 107.973 268.373 108.418 267.709 108.747C267.044 109.076 266.313 109.231 265.513 109.231H258.426V94.2309H265.85C266.553 94.2309 267.16 94.4148 267.67 94.7922C268.181 95.1696 268.576 95.6438 268.845 96.2244C269.115 96.8051 269.259 97.4148 269.259 98.0535C269.259 98.789 269.076 99.4761 268.701 100.115C268.325 100.753 267.796 101.228 267.112 101.537C267.969 101.789 268.643 102.263 269.144 102.941C269.644 103.628 269.895 104.431 269.895 105.36H269.885ZM260.323 95.8761V100.879H265.07C265.523 100.879 265.918 100.763 266.255 100.541C266.602 100.318 266.871 100.008 267.073 99.6309C267.276 99.2535 267.381 98.8373 267.381 98.3825C267.381 97.9083 267.285 97.4728 267.102 97.1051C266.91 96.7277 266.65 96.4373 266.322 96.2051C265.995 95.9825 265.619 95.8664 265.196 95.8664H260.314L260.323 95.8761ZM267.979 105.021C267.979 104.557 267.873 104.131 267.67 103.734C267.468 103.337 267.189 103.028 266.852 102.786C266.505 102.544 266.11 102.428 265.667 102.428H260.323V107.586H265.513C265.976 107.586 266.39 107.47 266.765 107.228C267.141 106.986 267.43 106.676 267.651 106.289C267.873 105.902 267.979 105.486 267.979 105.031V105.021Z"
     fill="#02112E"
     id="path11"
     style="fill:#f23b02;fill-opacity:1" />
  <path
     d="M284.03 107.537V109.231H273.718V94.2309H283.843V95.9244H275.649V100.783H282.775V102.37H275.649V107.547H284.039L284.03 107.537Z"
     fill="#02112E"
     id="path12"
     style="fill:#f23b02;fill-opacity:1" />
  <path
     d="M287.862 109.221V94.2309H294.294C294.952 94.2309 295.563 94.3663 296.115 94.6468C296.667 94.9175 297.141 95.2851 297.548 95.7493C297.955 96.2038 298.275 96.7164 298.498 97.287C298.72 97.8576 298.837 98.4379 298.837 99.0278C298.837 99.7145 298.701 100.372 298.449 100.991C298.188 101.61 297.819 102.142 297.345 102.577C296.87 103.012 296.318 103.312 295.688 103.486L299.331 109.231H297.17L293.742 103.844H289.77V109.231H287.872L287.862 109.221ZM289.76 102.152H294.303C294.826 102.152 295.282 102.007 295.669 101.716C296.057 101.426 296.357 101.049 296.58 100.566C296.802 100.082 296.909 99.5694 296.909 99.0278C296.909 98.4862 296.783 97.9446 296.531 97.4804C296.279 97.0065 295.95 96.6294 295.534 96.3489C295.127 96.0684 294.671 95.9234 294.177 95.9234H289.76V102.152Z"
     fill="#02112E"
     id="path13"
     style="fill:#f23b02;fill-opacity:1" />
  <path
     d="M311.879 97.2088C311.71 97.0081 311.472 96.8073 311.185 96.6166C310.897 96.4259 310.57 96.2552 310.213 96.1047C309.856 95.9541 309.459 95.8236 309.033 95.7333C308.606 95.6429 308.16 95.5927 307.704 95.5927C306.524 95.5927 305.651 95.8136 305.086 96.2653C304.52 96.717 304.243 97.3393 304.243 98.1223C304.243 98.6743 304.391 99.116 304.679 99.4372C304.967 99.7584 305.413 100.019 306.008 100.22C306.603 100.421 307.367 100.632 308.289 100.853C309.36 101.083 310.282 101.374 311.056 101.706C311.839 102.037 312.434 102.489 312.851 103.051C313.267 103.613 313.475 104.356 313.475 105.289C313.475 106.032 313.337 106.674 313.049 107.226C312.771 107.768 312.375 108.22 311.869 108.582C311.363 108.943 310.768 109.204 310.094 109.364C309.419 109.535 308.676 109.615 307.882 109.615C307.089 109.615 306.345 109.535 305.601 109.364C304.857 109.194 304.153 108.953 303.489 108.632C302.824 108.311 302.2 107.909 301.625 107.427L302.557 105.761C302.785 106.012 303.082 106.253 303.459 106.494C303.836 106.735 304.243 106.955 304.719 107.166C305.195 107.377 305.7 107.538 306.246 107.658C306.791 107.779 307.357 107.849 307.932 107.849C309.033 107.849 309.876 107.648 310.49 107.247C311.105 106.845 311.403 106.263 311.403 105.49C311.403 104.908 311.234 104.446 310.897 104.095C310.56 103.743 310.054 103.452 309.39 103.221C308.725 102.991 307.922 102.76 306.97 102.519C305.929 102.258 305.056 101.967 304.352 101.656C303.648 101.344 303.112 100.933 302.765 100.421C302.408 99.909 302.229 99.2465 302.229 98.4334C302.229 97.4397 302.467 96.6066 302.943 95.924C303.419 95.2414 304.074 94.7195 304.917 94.3681C305.75 94.0168 306.702 93.8462 307.753 93.8462C308.447 93.8462 309.092 93.9165 309.687 94.067C310.282 94.2176 310.847 94.4183 311.363 94.6793C311.879 94.9403 312.355 95.2615 312.791 95.6229L311.879 97.2189V97.2088Z"
     fill="#02112E"
     id="path14"
     style="fill:#f23b02;fill-opacity:1" />
  <path
     d="M72.2524 100.37C79.2226 112.253 36.4141 137.639 29.4439 125.757C22.4738 113.874 26.4036 98.5522 38.2226 91.5447C50.0417 84.5372 65.2822 88.4881 72.2524 100.37Z"
     fill="#F23B02"
     id="path15" />
  <path
     d="M162.22 37.4316C159.253 32.4717 152.672 31.1727 148.069 34.6466L71.4877 92.059C72.5355 93.0824 73.4952 94.2043 74.3864 95.3852L158.146 51.2582C163.277 48.7487 165.167 42.3521 162.23 37.4414L162.22 37.4316Z"
     fill="#F23B02"
     id="path16" />
  <path
     d="M115.123 40.0521C118.654 36.8431 118.614 31.2617 115.025 28.1216C111.553 25.0798 106.238 25.6311 103.462 29.3225L64.224 86.928C65.5283 87.5974 66.7837 88.3652 67.9801 89.2314L115.123 40.0521Z"
     fill="#F23B02"
     id="path17" />
  <path
     d="M77.3591 103.462L137.884 92.2068C141.03 91.7419 143.44 89.1506 143.715 85.956C144.126 81.0404 139.442 77.282 134.787 78.8051L76.4575 99.2092C76.9867 100.357 77.3689 101.781 77.3591 103.462Z"
     fill="#F23B02"
     id="path18" />
  <path
     d="M74.1736 112.039L146.788 122.19C150.222 122.765 153.664 121.207 155.479 118.255C158.942 112.614 154.851 105.385 148.201 105.385L76.5081 107.714C76.1942 108.552 75.7921 109.419 75.2624 110.344C74.9387 110.909 74.566 111.484 74.1638 112.049L74.1736 112.039Z"
     fill="#F23B02"
     id="path19" />
  <path
     d="M77.8552 51.5097C79.3089 48.9675 77.5039 45.7698 74.6062 45.7698C73.0939 45.7698 71.7279 46.6934 71.1425 48.1134L58.1075 84.8562C59.0832 85.1144 60.0296 85.4223 60.9663 85.7698L77.8454 51.5097H77.8552Z"
     fill="#F23B02"
     id="path20" />
</svg>
